<svg width="916" height="1111" viewBox="0 0 916 1111" fill="none" xmlns="http://www.w3.org/2000/svg">
<path d="M17.2281 1109.09H0V1016.33H38.142C46.3695 1016.33 53.4237 1017.65 59.3044 1020.3C65.1852 1022.95 69.7131 1026.75 72.8881 1031.69C76.0632 1036.63 77.6507 1042.5 77.6507 1049.29C77.6507 1056.11 76.0632 1061.96 72.8881 1066.85C69.7131 1071.76 65.1852 1075.52 59.3044 1078.11C53.4237 1080.74 46.3695 1082.05 38.142 1082.05H9.52515L17.2281 1074.22V1109.09ZM79.2244 1109.09H60.6711L37.2309 1075.42H55.66L79.2244 1109.09ZM17.2281 1022.41V1076.09L9.52515 1067.84H37.3552C44.9477 1067.84 50.6766 1066.21 54.5419 1062.96C58.3795 1059.7 60.2984 1055.14 60.2984 1049.29C60.2984 1043.38 58.3795 1038.84 54.5419 1035.67C50.6766 1032.49 44.9477 1030.9 37.3552 1030.9H9.52515L17.2281 1022.41ZM134.636 1109.09H116.869L158.615 1016.33H175.594L217.463 1109.09H199.448L163.543 1025.44H170.417L134.636 1109.09ZM195.473 1087.6H136.085L140.724 1074.1H190.834L195.473 1087.6ZM305.716 1110.42C298.482 1110.42 291.842 1109.24 285.796 1106.9C279.722 1104.55 274.435 1101.24 269.935 1096.96C265.434 1092.68 261.942 1087.61 259.457 1081.76C257 1075.93 255.771 1069.58 255.771 1062.71C255.771 1055.81 257 1049.44 259.457 1043.62C261.942 1037.79 265.462 1032.73 270.017 1028.42C274.573 1024.14 279.888 1020.83 285.962 1018.48C292.063 1016.16 298.745 1015 306.006 1015C313.847 1015 320.929 1016.27 327.251 1018.81C333.574 1021.38 338.902 1025.13 343.237 1030.07L332.345 1040.68C328.728 1037.06 324.822 1034.4 320.625 1032.68C316.428 1030.94 311.818 1030.07 306.793 1030.07C301.934 1030.07 297.419 1030.88 293.25 1032.48C289.109 1034.08 285.534 1036.33 282.524 1039.23C279.515 1042.15 277.196 1045.6 275.567 1049.58C273.938 1053.56 273.123 1057.93 273.123 1062.71C273.123 1067.37 273.938 1071.7 275.567 1075.67C277.196 1079.65 279.515 1083.11 282.524 1086.07C285.534 1089.05 289.068 1091.33 293.126 1092.9C297.185 1094.5 301.699 1095.3 306.668 1095.3C311.252 1095.3 315.683 1094.57 319.962 1093.11C324.242 1091.64 328.328 1089.19 332.221 1085.73L342.036 1098.61C337.177 1102.51 331.544 1105.45 325.139 1107.44C318.734 1109.42 312.259 1110.42 305.716 1110.42ZM342.036 1098.61L325.719 1096.34V1061.63H342.036V1098.61ZM441.304 1110.42C434.043 1110.42 427.376 1109.22 421.302 1106.81C415.2 1104.44 409.899 1101.11 405.399 1096.83C400.871 1092.53 397.378 1087.49 394.921 1081.72C392.436 1075.92 391.194 1069.58 391.194 1062.71C391.194 1055.81 392.436 1049.46 394.921 1043.66C397.378 1037.89 400.871 1032.86 405.399 1028.58C409.899 1024.28 415.2 1020.94 421.302 1018.56C427.376 1016.19 434.002 1015 441.18 1015C448.414 1015 455.054 1016.19 461.1 1018.56C467.147 1020.94 472.434 1024.28 476.962 1028.58C481.462 1032.86 484.941 1037.89 487.398 1043.66C489.883 1049.46 491.125 1055.81 491.125 1062.71C491.125 1069.58 489.883 1075.93 487.398 1081.76C484.941 1087.61 481.462 1092.65 476.962 1096.87C472.434 1101.13 467.147 1104.44 461.1 1106.81C455.054 1109.22 448.455 1110.42 441.304 1110.42ZM441.18 1095.3C445.846 1095.3 450.167 1094.5 454.143 1092.9C458.118 1091.33 461.57 1089.05 464.496 1086.07C467.395 1083.11 469.673 1079.67 471.329 1075.75C472.958 1071.81 473.773 1067.46 473.773 1062.71C473.773 1057.93 472.958 1053.57 471.329 1049.62C469.673 1045.7 467.395 1042.26 464.496 1039.31C461.57 1036.36 458.118 1034.08 454.143 1032.48C450.167 1030.88 445.846 1030.07 441.18 1030.07C436.487 1030.07 432.18 1030.88 428.259 1032.48C424.311 1034.08 420.86 1036.36 417.906 1039.31C414.952 1042.26 412.66 1045.7 411.031 1049.62C409.375 1053.57 408.546 1057.93 408.546 1062.71C408.546 1067.37 409.375 1071.7 411.031 1075.67C412.66 1079.65 414.924 1083.11 417.823 1086.07C420.749 1089.05 424.201 1091.33 428.176 1092.9C432.152 1094.5 436.487 1095.3 441.18 1095.3ZM586.004 1110.42C578.77 1110.42 572.103 1109.22 566.001 1106.81C559.9 1104.44 554.599 1101.11 550.098 1096.83C545.598 1092.53 542.105 1087.49 539.621 1081.72C537.163 1075.92 535.935 1069.58 535.935 1062.71C535.935 1055.81 537.163 1049.46 539.621 1043.66C542.105 1037.89 545.598 1032.86 550.098 1028.58C554.599 1024.28 559.9 1020.94 566.001 1018.56C572.103 1016.19 578.729 1015 585.88 1015C593.113 1015 599.767 1016.19 605.841 1018.56C611.888 1020.94 617.161 1024.28 621.661 1028.58C626.161 1032.86 629.654 1037.89 632.139 1043.66C634.596 1049.46 635.825 1055.81 635.825 1062.71C635.825 1069.58 634.596 1075.93 632.139 1081.76C629.654 1087.61 626.161 1092.65 621.661 1096.87C617.161 1101.13 611.888 1104.44 605.841 1106.81C599.767 1109.22 593.155 1110.42 586.004 1110.42ZM585.88 1095.3C590.573 1095.3 594.908 1094.5 598.884 1092.9C602.859 1091.33 606.297 1089.05 609.196 1086.07C612.122 1083.11 614.4 1079.67 616.029 1075.75C617.658 1071.81 618.472 1067.46 618.472 1062.71C618.472 1057.93 617.658 1053.57 616.029 1049.62C614.4 1045.7 612.122 1042.26 609.196 1039.31C606.297 1036.36 602.859 1034.08 598.884 1032.48C594.908 1030.88 590.573 1030.07 585.88 1030.07C581.186 1030.07 576.879 1030.88 572.959 1032.48C569.038 1034.08 565.587 1036.36 562.605 1039.31C559.651 1042.26 557.359 1045.7 555.731 1049.62C554.102 1053.57 553.287 1057.93 553.287 1062.71C553.287 1067.37 554.102 1071.7 555.731 1075.67C557.359 1079.65 559.637 1083.11 562.564 1086.07C565.463 1089.05 568.9 1091.33 572.876 1092.9C576.852 1094.5 581.186 1095.3 585.88 1095.3ZM704.364 1109.09H687.261V1016.33H701.424L759.61 1087.72H752.611V1016.33H769.674V1109.09H755.51L697.324 1037.65H704.364V1109.09ZM832.374 1109.09H814.608L856.353 1016.33H873.332L915.202 1109.09H897.187L861.281 1025.44H868.156L832.374 1109.09ZM893.211 1087.6H833.824L838.462 1074.1H888.573L893.211 1087.6Z" fill="white"/>
<path opacity="0.992" fill-rule="evenodd" clip-rule="evenodd" d="M32.1871 0C316.167 0 600.146 0 884.126 0C884.126 1.52132 884.126 3.04264 884.126 4.56396C722.666 165.264 561.406 326.27 400.347 487.583C542.21 628.685 683.186 770.421 823.273 912.792C757.857 912.792 692.44 912.792 627.023 912.792C519.041 803.795 410.521 695.275 301.461 587.23C244.624 643.812 187.575 700.101 130.312 756.096C97.3591 724.412 64.6507 692.464 32.1871 660.253C32.1871 658.732 32.1871 657.21 32.1871 655.689C205.462 484.95 377.878 313.04 549.436 139.961C377.023 138.44 204.606 137.933 32.1871 138.44C32.1871 92.2935 32.1871 46.1467 32.1871 0Z" fill="#FEFFFE"/>
<path opacity="0.991" fill-rule="evenodd" clip-rule="evenodd" d="M32.1871 228.198C133.106 227.691 234.021 228.198 334.93 229.719C234.924 331.248 134.009 431.655 32.1871 530.941C32.1871 430.027 32.1871 329.112 32.1871 228.198Z" fill="#DE3939"/>
<path opacity="0.987" fill-rule="evenodd" clip-rule="evenodd" d="M480.976 912.792C415.56 912.792 350.143 912.792 284.726 912.792C254.037 881.85 223.61 850.663 193.447 819.231C225.1 785.803 257.555 753.094 290.811 721.106C355.321 784.093 418.71 847.988 480.976 912.792Z" fill="#DE3939"/>
</svg>
